<?xml version="1.0" encoding="UTF-8"?>
<svg width="120px" height="60px" viewBox="0 0 120 60" version="1.1" xmlns="http://www.w3.org/2000/svg" xmlns:xlink="http://www.w3.org/1999/xlink">
    <!-- Generator: Sketch 61 (89581) - https://sketch.com -->
    <title>BB-Logo</title>
    <desc>Created with Sketch.</desc>
    <g id="Symbols" stroke="none" stroke-width="1" fill="none" fill-rule="evenodd">
        <g id="Main-Nav" transform="translate(-119.000000, -60.000000)" fill="#28B7D5">
            <g id="BB-Logo">
                <g transform="translate(119.500000, 60.000000)">
                    <path d="M81.1464854,40.6030097 C81.0022136,41.9160194 80.5589126,43.8317476 80.1497864,44.7465049 C79.7410485,45.6612621 79.3427961,46.4682524 78.4495922,46.8449515 C77.5563883,47.2216505 77.1150291,46.9956311 76.7276505,46.414466 C76.3107573,45.7890291 76.3274563,44.8414563 76.3591068,44.1263107 C76.4117282,42.9313592 76.671534,41.713301 77.172699,40.6239806 C77.2088155,40.545534 77.2462913,40.4678641 77.2855146,40.3907767 C77.5835728,39.8068932 77.9820194,39.266699 78.4967767,38.8606796 C79.0616311,38.4154369 79.9864854,38.0958252 80.6125049,38.6098058 C81.174835,39.0713592 81.2194951,39.9381553 81.1464854,40.6030097 M66.6950291,44.7451456 C66.4734757,45.4084466 65.9810485,45.9882524 65.4132816,46.3832039 C63.2035728,47.9181553 61.4332816,46.0096117 61.4313235,43.774466 C61.4272621,41.8020388 62.1897864,39.3259223 64.224932,38.5323301 C65.6408544,37.9795146 64.3723107,39.4816505 64.2616311,39.9096117 C64.0105631,40.8956311 65.0651262,41.7804854 65.8295922,42.1424272 C66.8664854,42.6327184 67.0550291,43.6752427 66.6950291,44.7451456 M101.268233,40.0558252 C101.641437,39.1503883 101.683573,37.8886408 101.043573,37.2280583 C100.403767,36.5674757 99.4612427,36.405534 98.5064854,36.7447573 C97.5517282,37.0839806 96.6156117,37.9773786 95.9697864,39.0212621 C95.9697864,39.0212621 96.7476505,36.8272816 95.3686214,36.5303883 C93.9897864,36.2336893 91.6864854,36.7719417 91.1377476,36.9979612 C90.5890097,37.2239806 90.3167767,37.3880583 90.1728932,37.5643689 C90.0292039,37.7404854 89.9109515,37.8909709 90.0616311,38.6121359 C90.2121165,39.333301 90.3521165,40.8614563 90.1798835,42.0558252 C90.0078447,43.2505825 89.620466,44.4235922 89.103767,45.1230097 C88.5872621,45.8226214 88.0923107,46.1562136 87.6293981,46.2531068 C87.1666796,46.35 86.7954175,46.2746602 86.537165,46.1292233 C86.2789126,45.9839806 85.9884272,45.6665049 85.8697864,45.4674757 C85.751534,45.2682524 85.6062913,44.9562136 85.6328932,44.2513592 C85.6598835,43.5465049 85.8499806,42.2459223 86.2499806,40.6200971 C86.6501748,38.9942718 86.888233,38.488835 87.0165825,37.9828155 C87.1451262,37.4767961 87.2218252,37.0030097 87.0705631,36.6882524 C86.9191068,36.3736893 86.4043495,36.4430097 86.1336699,36.4921359 L85.8185243,36.5505825 C84.2125049,36.9158252 83.5890097,37.3907767 82.7895922,37.258932 C82.1105631,37.1468932 81.5142524,36.7228155 80.8499806,36.5492233 C80.0843495,36.3492233 79.2410485,36.3253398 78.4556117,36.3752427 C76.5994951,36.4929126 74.491534,37.1599029 73.2367767,38.5971845 C72.5076505,39.4323301 71.7967767,40.625534 71.3346408,41.9600971 C71.2144466,41.9321359 70.5295922,41.7113592 69.9196893,40.2257282 C69.248233,38.5907767 68.214835,36.102233 64.147068,36.345534 C60.0791068,36.588835 58.3394951,38.1587379 56.8738641,40.4946602 C55.4084272,42.8307767 55.2332816,45.8608738 56.6767767,47.8325243 C58.120466,49.8045631 60.8408544,50.1758252 62.7738641,49.9793204 C64.7066796,49.7828155 68.2142524,48.8839806 69.6567767,44.1032039 C69.6567767,44.1032039 69.914835,44.2742718 70.8229903,44.4628155 C70.7659029,45.4795146 70.9053204,46.5024272 71.3262913,47.4531068 C72.6919223,50.5362136 77.3725049,50.7152427 80.671534,47.6771845 C80.671534,47.6771845 80.8340583,48.5035922 81.9501748,49.3263107 C83.0664854,50.148835 86.054835,50.4245631 88.5963883,47.9082524 C88.5963883,47.9082524 88.4907573,48.5633981 88.4862913,48.9785437 C88.4822136,49.3536893 88.5728932,49.8785437 89.3573592,49.9385437 C90.1418252,49.9985437 90.6624078,49.9791262 91.4542524,49.8890291 C92.2462913,49.798932 93.2651262,49.6643689 93.4709515,49.5437864 C93.6765825,49.4232039 93.8536699,49.3470874 93.908233,48.8628155 C93.9627961,48.3783495 94.2226019,46.6329126 94.6064854,44.925534 C94.9905631,43.2183495 95.8189126,41.4536893 96.9651262,40.3773786 C96.9651262,40.3773786 97.1235728,41.2857282 97.6659029,41.6494175 C98.208233,42.0129126 98.7862913,42.0358252 99.4981359,41.8037864 C100.210175,41.5715534 100.894835,40.961068 101.268233,40.0558252 M109.920078,43.2404854 C109.873476,43.4383495 109.822796,43.6348544 109.766291,43.83 C109.404155,45.0795146 108.465709,47.4070874 106.774641,47.0602913 C105.809981,46.862233 105.775029,45.6072816 105.78435,44.8412621 C105.799495,43.5783495 106.015417,42.3214563 106.384155,41.1146602 C106.544932,40.5876699 106.736777,40.0653398 107.026291,39.5966019 C107.296,39.1600971 107.677359,38.7597087 108.134835,38.5202913 C108.511922,38.3232039 108.957359,38.2391262 109.370757,38.3395146 C110.104738,38.5173786 110.432505,39.1936893 110.42299,39.9033981 C110.414447,40.5496117 110.297553,41.1719417 110.194835,41.8061165 C110.116971,42.286699 110.03134,42.766699 109.920078,43.2404854 M118.903379,45.2191262 C118.839689,45.2261165 118.776777,45.2459223 118.716194,45.2684466 C117.805126,45.6053398 117.202602,46.631165 116.110563,46.2746602 C115.319495,46.0164078 115.078718,45.2841748 114.997359,44.6092233 C114.916,43.9338835 115.06435,42.3331068 115.721049,39.9863107 C116.377553,37.6393204 117.541049,33.8346602 117.80299,32.5599029 C118.06532,31.2853398 118.646874,28.9847573 118.379495,27.7342718 C118.112311,26.4835922 117.137359,25.4247573 115.671534,25.2276699 C114.205903,25.0307767 112.670369,25.4628155 111.718718,25.9327184 C110.767456,26.4028155 110.382214,27.0346602 110.276194,27.3160194 C110.170175,27.5973786 110.299301,27.9041748 110.86435,27.9849515 C111.429204,28.065534 111.978136,28.0818447 112.316971,28.921068 C112.656,29.7604854 112.575223,30.938932 112.446097,31.8913592 C112.316971,32.8437864 112.103573,34.1156311 111.687456,35.6651456 C111.599495,35.9931068 111.470369,36.4701942 111.319689,37.0298058 C111.319689,37.0298058 110.520854,36.6243689 109.218718,36.5057282 C107.916583,36.3874757 106.72066,36.5966019 105.301243,37.1657282 C103.329204,37.9564078 101.697359,39.513301 100.905515,41.4896117 C100.763767,41.8433981 100.643961,42.205534 100.540854,42.5723301 C99.7095922,45.5321359 100.44901,47.7150485 101.556388,48.7542718 C102.663767,49.7936893 104.634641,50.3313592 106.893864,49.5540777 C108.341631,49.0558252 109.382602,48.2952427 109.945709,47.8119417 C110.072893,48.0109709 110.275806,48.2940777 110.589786,48.6476699 C111.235612,49.3740777 112.158136,49.9109709 113.399883,49.9571845 C114.641631,50.0035922 116.148039,49.4366019 117.517748,48.3884466 C118.887068,47.3399029 119.272311,46.4059223 119.322019,45.9608738 C119.348816,45.7185437 119.302019,45.2451456 118.979495,45.2181553 C118.954058,45.2160194 118.928621,45.2166019 118.903379,45.2191262 M89.1035728,20.9993204 C89.4406602,20.6523301 90.1039612,20.1857282 90.6709515,20.2096117 C90.900466,20.2191262 91.1144466,20.3094175 91.2843495,20.5206796 C91.6664854,20.9958252 91.4117282,21.7929126 91.1897864,22.2818447 C90.9288155,22.8560194 90.4874563,23.3350485 89.9824078,23.7127184 C89.5987184,23.9993204 89.2544466,24.2129126 88.7464854,24.4375728 C88.3093981,24.631165 87.5907573,24.7818447 87.5903689,24.7898058 C87.6606602,23.3742718 88.1000777,22.0323301 89.1035728,20.9993204 M110.981825,14.3430097 C110.872893,13.6212621 110.680078,12.9191262 110.409981,12.2498058 C109.468233,9.90786408 107.610757,7.97621359 105.10299,7.27776699 C104.618718,7.14359223 104.122602,7.0268932 103.62066,6.98029126 C103.169786,6.93854369 102.714835,6.91679612 102.261049,6.91679612 C99.4051262,6.91679612 96.5633786,7.77699029 94.5930874,9.96223301 C93.447068,11.2336893 92.6441553,12.8969903 92.4565825,14.6072816 C92.4196893,14.9461165 92.3229903,16.0756311 92.8820194,16.0756311 C93.188233,16.0756311 93.5268738,15.6387379 93.527068,15.6385437 C95.5490097,13.0032039 100.201049,12.7534951 102.316583,15.3661165 C103.302019,16.5830097 103.834835,18.025534 103.54435,20.8342718 C103.38765,22.3476699 102.749981,24.5204854 101.539107,26.4960194 C100.502796,28.1868932 99.0466796,29.733301 97.1132816,30.5987379 C96.6664854,30.7985437 96.2016311,30.9587379 95.7251262,31.0701942 C94.3350291,31.3952427 92.8451262,31.3630097 91.4591068,31.0274757 C90.3843495,30.7670874 89.3616311,30.2548544 88.664932,29.3760194 C88.1734757,28.7562136 87.8530874,28.0090291 87.699301,27.2354369 C87.6565825,27.0206796 87.6196893,26.7983495 87.6154175,26.5785437 C90.1659029,26.4484466 93.1717282,25.3750485 94.3280388,22.8876699 C94.7457087,21.9890291 94.8008544,20.8740777 94.3027961,19.9954369 C93.5284272,18.6290291 91.5987184,18.4496117 90.1791068,18.4303883 C88.4340583,18.4065049 86.5909515,18.8515534 85.1156117,19.8053398 C85.0068738,19.8752427 84.903767,19.9527184 84.7987184,20.0290291 C82.4585243,21.6764078 81.3109515,24.6274757 81.6358058,27.4402913 C81.6358058,27.4402913 81.5596893,27.554466 81.127068,27.8987379 C80.7165825,28.225534 80.2455146,28.4962136 79.7055146,28.4962136 C79.6523107,28.4962136 79.5991068,28.493301 79.5464854,28.4868932 C79.0408544,28.4245631 78.7509515,28.0199029 78.6224078,27.5569903 C78.4078447,26.7853398 78.5039612,25.9657282 78.6693981,25.194466 C78.8589126,24.3117476 79.0958058,23.4375728 79.3152233,22.5639806 C79.5231845,21.7364078 79.8476505,20.9303883 80.0000777,20.0896117 C80.0981359,19.5498058 79.9363883,18.7453398 79.3189126,18.5952427 C79.0810485,18.5340777 78.7614369,18.5101942 78.408233,18.5101942 C77.1697864,18.5101942 75.516,18.8033981 75.516,18.8033981 C73.0783301,19.2703883 73.977165,20.7915534 73.977165,20.7915534 C74.1680388,21.1707767 73.924932,22.9857282 73.9247379,22.9857282 C73.7575534,24.3030097 73.2958058,25.5814563 72.5845437,26.7024272 C72.0476505,27.548835 71.052699,28.8181553 69.8884272,28.4750485 C69.3476505,28.3158252 69.1229903,27.833301 69.1167767,27.3020388 C69.1084272,26.6041748 69.2226019,25.9166019 69.3552233,25.2342718 C69.4954175,24.5146602 69.6608544,23.8043689 69.8791068,23.1063107 C70.1342524,22.2896117 70.4554175,21.4657282 70.6078447,20.6249515 C70.6973592,20.1296117 70.7664854,19.5583495 70.5798835,19.0748544 C70.5041553,18.8785437 70.3765825,18.6882524 70.1791068,18.6006796 C69.9567767,18.5026214 69.7020194,18.5043689 69.4633786,18.491165 C69.1769709,18.4754369 68.8901748,18.4705825 68.6031845,18.4766019 C67.7196893,18.4952427 66.7987184,18.5958252 65.944932,18.8307767 C65.3589126,18.9919417 64.4303689,19.3445631 64.437165,20.0812621 C64.4391068,20.2936893 64.5278447,20.4886408 64.6051262,20.6824272 C64.6890097,20.8925243 64.7354175,21.0967961 64.7497864,21.3218447 C64.7765825,21.7484466 64.6476505,22.1754369 64.5290097,22.5894175 C64.528233,22.5925243 64.527068,22.5962136 64.5260971,22.5995146 C64.5076505,22.6680583 64.4878447,22.7393204 64.467068,22.813301 C64.1666796,23.8839806 63.6610485,25.5047573 63.4474563,27.07 C63.327068,27.4327184 63.1022136,27.7921359 62.8208544,28.0513592 C62.5540583,28.2973786 62.2105631,28.4672816 61.8486214,28.4940777 C61.4868738,28.5208738 61.1093981,28.3956311 60.859301,28.1325243 C60.6678447,27.9313592 60.5598835,27.6651456 60.4853204,27.3975728 C60.2785243,26.6546602 60.357165,25.9051456 60.4643495,25.1536893 C60.5591068,24.4905825 60.6899806,23.8327184 60.836,23.1791262 C60.9723107,22.5694175 61.119301,21.961068 61.288233,21.3595146 C61.4616311,20.7369903 62.9983301,14.918932 63.0002718,14.9129126 C63.4260971,13.2981553 63.9243495,11.4795146 63.6092039,9.79291262 C63.260466,7.92281553 61.6472621,7.22941748 59.9631845,7.22941748 C59.4958058,7.22941748 59.0233786,7.28262136 58.5705631,7.37893204 C57.8375534,7.53446602 54.9994951,8.48592233 55.4546408,9.64514563 C55.5111456,9.78728155 55.647068,9.8668932 55.7775534,9.92708738 C56.4330874,10.226699 57.1099806,10.1391262 57.4583301,10.8863107 C57.7014369,11.4115534 57.7402718,12.0474757 57.7558058,12.6173786 C57.8424078,15.6016505 56.8445437,18.5183495 55.9944466,21.3432039 C55.6812427,22.3841748 55.3495922,23.4193204 55.0303689,24.4583495 C54.5189126,26.1226214 54.1233786,28.1286408 54.8728932,29.7882524 C55.0880388,30.2643689 55.4035728,30.6913592 55.8053204,31.0263107 C56.1297864,31.2966019 56.5123107,31.4931068 56.9196893,31.6315534 C57.4610485,31.8156311 58.0462913,31.897767 58.5987184,31.9158252 C59.7121165,31.9521359 60.8066796,31.6633981 61.7530874,31.1094175 C61.7600777,31.1051456 61.7662913,31.1006796 61.7734757,31.0964078 C62.7150291,30.508835 63.2297864,29.8806796 63.4558058,29.5534951 C63.5303689,29.9086408 63.6464854,30.2350485 63.8156117,30.5197087 C63.9488155,30.7435922 64.1123107,30.9430097 64.3152233,31.1074757 C64.4767767,31.2542718 64.6552233,31.3851456 64.8565825,31.4931068 C65.5460971,31.8614563 66.3525049,31.9307767 67.1200777,31.8698058 C67.892699,31.8086408 68.6476505,31.697767 69.3903689,31.4663107 C70.0488155,31.2614563 70.683767,30.9808738 71.2785243,30.6313592 C72.3763883,29.9859223 72.9521165,29.3331068 72.9521165,29.3331068 C73.2565825,30.437767 74.0410485,31.2962136 75.1243495,31.6717476 C75.903767,31.9418447 76.7647379,31.9967961 77.600466,31.8818447 C78.6598835,31.7358252 79.680466,31.2956311 80.5400777,30.6618447 C81.1191068,30.2348544 81.6845437,29.6956311 82.079301,29.0898058 C82.4427961,30.2470874 84.0321165,31.5449515 84.0321165,31.5449515 C86.171534,33.3418447 88.9998835,33.9620388 91.7532816,33.9620388 C92.224932,33.9620388 92.6942524,33.9435922 93.157165,33.91 C96.9740583,33.6338835 100.794641,32.4183495 103.861825,30.0585437 C105.02765,29.1618447 106.159495,28.1006796 107.144738,26.9560194 C107.144738,26.9560194 107.247068,26.8402913 107.413864,26.634466 C107.426097,26.6193204 107.438913,26.6049515 107.452311,26.5861165 C107.822796,26.125534 108.46435,25.2734951 109.026291,24.2639806 C109.030951,24.2600971 109.035223,24.2560194 109.039689,24.2523301 C109.081437,24.1746602 109.120078,24.0952427 109.160466,24.0167961 C109.333087,23.6905825 109.495417,23.3519417 109.634835,23.0061165 C109.639107,22.9950485 109.641243,22.9857282 109.645709,22.9752427 C110.033476,22.0554369 110.339301,21.0999029 110.579107,20.1360194 C111.05367,18.2257282 111.293087,16.3018447 110.981825,14.3430097 M41.6441553,44.4665049 C37.7373592,47.2430097 32.959301,45.2414563 31.6356117,44.5633981 C31.4525049,44.4696117 31.2340583,44.3449515 30.9880388,44.198932 C31.4412427,42.9082524 31.8447379,41.602233 32.234835,40.313301 C33.108233,37.4265049 33.9257087,34.4884466 34.4765825,31.5200971 C34.5744466,30.9927184 34.7041553,30.2742718 34.8565825,29.4237864 C37.0779417,29.4713592 39.4641553,30.0074757 41.2391068,31.2220388 C42.1614369,31.8534951 42.9305631,32.6997087 43.4938641,33.6635922 C45.408233,36.9400971 44.8725049,42.1719417 41.6441553,44.4665049 M19.5857087,44.8406796 C17.6558058,46.8556311 15.2251262,47.191165 14.1690097,47.191165 C13.0794951,47.191165 11.8558058,46.791165 11.0892039,45.9975728 C9.83968932,44.7035922 10.1041553,42.4719417 11.3598835,41.2797087 C12.3901748,40.301068 13.8542524,40.1993204 15.1938641,40.3841748 C16.7490097,40.5987379 18.2002718,41.2785437 19.563767,42.0268932 C20.1105631,42.3270874 20.6451262,42.6490291 21.1703689,42.9863107 C20.7569709,43.5457282 20.257165,44.1397087 19.5857087,44.8406796 M38.9414369,10.9709709 C39.5693981,11.2274757 40.1202718,11.5329126 40.6016311,11.8771845 C43.0575534,13.6329126 43.6672621,16.4142718 43.0692039,19.058932 C42.3600777,22.1967961 40.3047379,25.1181553 35.4719223,25.9966019 C35.5053204,25.8117476 35.5391068,25.6247573 35.5732816,25.4360194 C36.3016311,21.4078641 37.2057087,16.5340777 37.9311456,13.2787379 C38.127068,12.3997087 38.3695922,11.5934951 38.6429903,10.8542718 C38.7431845,10.8923301 38.8429903,10.9307767 38.9414369,10.9709709 M50.6363883,30.7923301 C47.4876505,27.7428155 43.3361942,26.7103883 42.0059029,26.5162136 C42.0059029,26.5162136 44.4134757,26.3280583 47.3711456,24.3719417 C50.3288155,22.4156311 52.2530874,19.3461165 52.1303689,16.3769903 C52.0078447,13.4078641 50.4274563,11.801068 48.7961942,10.4573786 C47.772699,9.61446602 45.4583301,8.41893204 42.2579417,7.41135922 C41.7703689,7.25757282 41.2618252,7.10864078 40.7346408,6.96572816 C41.4822136,5.97834951 42.567068,4.65291262 43.8666796,4.44786408 C45.1884272,4.23912621 46.0175534,5.13271845 46.8097864,6.04669903 C47.6490097,7.01524272 49.0697864,7.37058252 50.2965825,6.9507767 C51.5233786,6.53097087 52.8794951,4.9492233 52.2014369,3.23796117 C51.5233786,1.5268932 49.9736699,0.235242718 46.874835,0.195436893 C44.6338641,0.166504854 42.6532816,0.59038835 40.4746408,2.06514563 C39.1690097,2.94902913 37.7925049,4.21038835 36.2462913,5.97834951 C36.2379417,5.9876699 36.2303689,5.99699029 36.2220194,6.00650485 C36.0497864,5.97951456 35.8767767,5.95291262 35.7024078,5.9276699 C29.1495922,4.98145631 15.6027961,6.50941748 10.6243495,13.1228155 C10.227068,13.6501942 9.86240777,14.2028155 9.53930097,14.778932 C7.48104854,18.4463107 7.19580583,23.6074757 10.1460971,26.917767 C11.4532816,28.3845631 13.2732816,29.1204854 15.1567767,29.5228155 C17.1833786,29.9556311 19.3229903,29.8449515 21.2511456,29.0587379 C24.2420194,27.8397087 25.7466796,24.7892233 26.3666796,22.9727184 C26.9862913,21.1566019 27.4459029,17.3140777 26.1829903,17.1849515 C24.9202718,17.0560194 25.299301,19.4109709 23.3179417,19.9123301 C21.3365825,20.4138835 19.4227961,19.2536893 19.4433786,17.0894175 C19.4639612,14.9253398 20.2402718,13.4216505 21.9668738,12.0909709 C23.6932816,10.7604854 25.4872621,10.1352427 27.6734757,9.78592233 C28.8961942,9.59058252 31.077165,9.49504854 33.4321165,9.72242718 C32.3136699,11.5032039 31.1680388,14.6552427 30.7043495,16.3387379 C30.1006602,18.5292233 28.2352233,25.9212621 27.0295922,29.8927184 C26.931534,30.2158252 26.8373592,30.5191262 26.7490097,30.7923301 C25.580466,34.4070874 24.1429903,37.7632039 23.1024078,39.7152427 C23.0839612,39.7063107 23.0662913,39.6971845 23.0476505,39.6882524 C18.7859029,37.6542718 13.9752233,36.4597087 8.64823301,37.9773786 C3.32104854,39.4946602 -0.972932039,44.4342718 0.479883495,51.2142718 C1.9328932,57.9940777 8.22862136,60.1896117 13.9429903,59.9313592 C15.0942524,59.8793204 16.2352233,59.6678641 17.332699,59.317767 C21.5876505,57.9600971 25.1684272,54.6408738 27.6779417,51.0340777 C28.1031845,50.4224272 28.4911456,49.7872816 28.8493981,49.1340777 C31.2769709,51.0606796 33.6783301,52.5420388 36.7010485,53.0701942 C41.4179417,53.8938835 44.571534,53.3703883 47.547068,51.7919417 C50.5226019,50.2134951 52.9532816,46.6938835 53.6426019,42.674466 C54.3321165,38.6552427 53.7853204,33.8420388 50.6363883,30.7923301"></path>
                </g>
            </g>
        </g>
    </g>
</svg>